# xmcd
#
# Track frame offsets: 
#        150
#        15747
#        28850
#        44747
#        56532
#        70990
#        83842
#        97270
#        111332
#        125060
#        138382
#        150362
#        164145
#        178112
#        191487
#        206997
#        219542
#        233337
#        248650
#        261362
#        275747
#        289180
#        304700
#        316540
#        329525
#
# Disc length: 4571 seconds
#
# Revision: 5
# Processed by: cddbd v1.5.2PL0 Copyright (c) Steve Scherf et al.
# Submitted via: ExactAudioCopy v1.1
#
DISCID=8011d919
DTITLE=Various Artist - Roots N' Blues - The Retrospective 1925-1950 
DTITLE=Disc 1
DYEAR=1992
DGENRE=Blues
TTITLE0=Charlie Poole with The North Carolina Ramblers - Whitehouse Bl
TTITLE0=ues (mono)
TTITLE1=The Aiken County String Band - High Sheriff (mono)
TTITLE2=Frank Hutchinson - The Last Scene Of The Titanic (mono)
TTITLE3=Hersal Thomas - Suitcase Blues (mono)
TTITLE4=Reverend J.M. Gates - Death's Black Train Is Coming (mono)
TTITLE5=Dora Carr - Cow-Cow Blues (mono)
TTITLE6=Vance's Tennessee Breakdowners - Washington County Fox Chase (
TTITLE6=mono)
TTITLE7=Fiddlin' John Carson - I'm Going To Take The Train To Charlott
TTITLE7=e (mono)
TTITLE8=Ernest V. Stoneman's Trio - Untitled (mono)
TTITLE9=Whistler and His Jug Band - Low Down Blues (mono)
TTITLE10=Washington Phillips - Paul and Silas In Jail (mono)
TTITLE11=Barbecue Bob (Robert Hicks) - Blind Pig Blues (mono)
TTITLE12=Austin and Lee Allen - Chattanooga Blues (mono)
TTITLE13=Sherman Tedder - Untitled (mono)
TTITLE14=The Dallas String Band with Coley Jones - Hokum Blues (mono)
TTITLE15=Gladys Bentley - Worried Blues (mono)
TTITLE16=Elizabeth Johnson - Empty Bed Blues - Part 1 (mono)
TTITLE17=Elizabeth Johnson - Empty Bed Blues - Part 2 (mono)
TTITLE18=The South Georgia Highballers - Blue Grass Twist (mono)
TTITLE19=Charlie Bowman and His Brothers - Moonshiner And His Money (mon
TTITLE19=o)
TTITLE20=Clarence Green - Johnson City Blues (mono)
TTITLE21=Reverend Johnny Blakey with The Sanctified Singers - Warming 
TTITLE21=By The Devil's Fire (mono)
TTITLE22=Papa Too Sweet and Harry Jones - (Honey) It's Tight Like That (
TTITLE22=mono)
TTITLE23=Mississippi John Hurt - Big Leg Blues (mono)
TTITLE24=The Daniels-Deason Sacred Harp Singers - Hallelujah (mono)
EXTD=4CD: Columbia/Legacy C4K 47911 (1992-06-30), UPC 074644791129.
EXTT0=
EXTT1=
EXTT2=
EXTT3=
EXTT4=
EXTT5=
EXTT6=Previously unissued
EXTT7=Previously unissued
EXTT8=Previously unissued
EXTT9=
EXTT10=
EXTT11=
EXTT12=
EXTT13=Previously unissued
EXTT14=
EXTT15=
EXTT16=
EXTT17=
EXTT18=
EXTT19=
EXTT20=Previously unissued take
EXTT21=
EXTT22=
EXTT23=Previously unissued
EXTT24=Previously unissued
PLAYORDER=
